<svg width="136" height="136" viewBox="0 0 136 136" fill="none" xmlns="http://www.w3.org/2000/svg">
<path fill-rule="evenodd" clip-rule="evenodd" d="M66.9833 135.993C92.2752 135.209 116.549 119.013 127.502 92.886C138.19 67.3897 133.243 39.4706 117.044 20.8562C128.784 33.081 136 49.6854 136 67.9759C136 105.545 105.555 136 68 136C67.6605 136 67.3216 135.998 66.9833 135.993ZM18.9302 115.069C2.63675 96.4546 -2.36 68.4616 8.35414 42.9034C18.8066 17.9692 41.3916 2.08034 65.4154 0C29.0577 1.35913 0 31.2729 0 67.9759C0 86.253 7.20563 102.847 18.9302 115.069Z" fill="#B0292E"/>
</svg>
