<svg width="20" height="20" viewBox="0 0 20 20" fill="none" xmlns="http://www.w3.org/2000/svg">
<g clip-path="url(#clip0_940_6353)">
<path d="M0.999992 5.44469C0.999992 5.0616 1.14587 4.6942 1.40554 4.42331C1.6652 4.15243 2.01738 4.00024 2.38461 4.00024H17.6154C17.9826 4.00024 18.3348 4.15243 18.5944 4.42331C18.8541 4.6942 19 5.0616 19 5.44469V15.5558C19 15.9389 18.8541 16.3063 18.5944 16.5772C18.3348 16.8481 17.9826 17.0002 17.6154 17.0002H2.38461C2.01738 17.0002 1.6652 16.8481 1.40554 16.5772C1.14587 16.3063 0.999992 15.9389 0.999992 15.5558V5.44469Z" stroke="white" stroke-linejoin="round"/>
<path d="M1.49999 5.50024L9.21215 11.7099C9.44365 11.899 9.71848 12.0002 9.99999 12.0002C10.2815 12.0002 10.5563 11.899 10.7878 11.7099L18.5 5.50024" stroke="white" stroke-linecap="round" stroke-linejoin="round"/>
</g>
<defs>
<clipPath id="clip0_940_6353">
<rect width="20" height="20" fill="white" transform="translate(-7.62939e-06 0.000244141)"/>
</clipPath>
</defs>
</svg>
