<svg width="100" height="162" viewBox="0 0 100 162" fill="none" xmlns="http://www.w3.org/2000/svg">
<path fill-rule="evenodd" clip-rule="evenodd" d="M72.6462 107.077C80.2504 106.404 86.9588 112.045 87.6282 119.678C88.3 127.31 82.68 134.042 75.0758 134.715C67.4704 135.389 60.762 129.747 60.0914 122.115C59.4208 114.483 65.042 107.75 72.6462 107.077Z" fill="#1A1919"/>
<path fill-rule="evenodd" clip-rule="evenodd" d="M95.6202 125.523C101.856 124.971 107.355 129.596 107.904 135.853C108.454 142.111 103.847 147.631 97.6116 148.183C91.3775 148.734 85.8766 144.11 85.3264 137.853C84.7762 131.595 89.3849 126.075 95.6202 125.523Z" fill="#1A1919"/>
<path fill-rule="evenodd" clip-rule="evenodd" d="M96.3091 101.438C100.648 95.1327 109.256 93.5521 115.538 97.907C121.819 102.261 123.395 110.9 119.057 117.206C114.718 123.509 106.109 125.09 99.8271 120.736C93.546 116.383 91.9701 107.742 96.3091 101.438Z" fill="#1A1919"/>
<path fill-rule="evenodd" clip-rule="evenodd" d="M99.9246 57.974C92.8814 55.0196 89.5585 46.8935 92.5022 39.8246C95.4471 32.7558 103.544 29.4208 110.586 32.3752C117.63 35.3308 120.953 43.4557 118.009 50.5246C115.064 57.5946 106.969 60.9284 99.9246 57.974Z" fill="#1A1919"/>
<path fill-rule="evenodd" clip-rule="evenodd" d="M88.139 30.9188C82.3648 28.4961 79.6402 21.8333 82.0542 16.038C84.4681 10.2428 91.1067 7.5071 96.8809 9.92984C102.656 12.3538 105.38 19.0154 102.966 24.8118C100.553 30.6071 93.9143 33.3416 88.139 30.9188Z" fill="#1A1919"/>
<path fill-rule="evenodd" clip-rule="evenodd" d="M67.5141 17.0671C63.0077 15.1773 60.8815 9.97775 62.7657 5.4549C64.6487 0.932058 69.8293 -1.20188 74.3357 0.68918C78.8421 2.58024 80.9671 7.77855 79.0841 12.3014C77.1999 16.8242 72.0205 18.957 67.5141 17.0671Z" fill="#1A1919"/>
<path fill-rule="evenodd" clip-rule="evenodd" d="M48.4231 15.4553C45.1857 14.0971 43.6578 10.3609 45.0111 7.11166C46.3643 3.86242 50.0858 2.32903 53.3244 3.68721C56.5618 5.04539 58.0897 8.7816 56.7364 12.0308C55.3832 15.2801 51.6605 16.8135 48.4231 15.4553Z" fill="#1A1919"/>
<path fill-rule="evenodd" clip-rule="evenodd" d="M37.0907 18.7657C35.1211 17.9392 34.1928 15.6675 35.0151 13.6906C35.8386 11.715 38.1033 10.7821 40.0717 11.6074C42.0414 12.4339 42.9709 14.7056 42.1474 16.6825C41.3239 18.6593 39.0604 19.5922 37.0907 18.7657Z" fill="#1A1919"/>
<path fill-rule="evenodd" clip-rule="evenodd" d="M75.9277 52.4626C69.1494 55.9874 60.8084 53.3302 57.2953 46.5272C53.7833 39.7242 56.4308 31.3528 63.2091 27.828C69.9862 24.3033 78.3284 26.9604 81.8403 33.7622C85.3523 40.5652 82.706 48.9379 75.9277 52.4626Z" fill="#1A1919"/>
<path fill-rule="evenodd" clip-rule="evenodd" d="M47.6906 44.1712C42.1331 47.0615 35.2947 44.8829 32.4148 39.3064C29.5349 33.7274 31.7057 26.864 37.2619 23.9736C42.8206 21.0833 49.6591 23.2619 52.5389 28.8396C55.4188 34.4174 53.2481 41.2808 47.6906 44.1712Z" fill="#1A1919"/>
<path fill-rule="evenodd" clip-rule="evenodd" d="M23.8702 51.1581C19.5336 53.4129 14.1964 51.7128 11.9498 47.3603C9.70205 43.0078 11.396 37.6524 15.7327 35.3965C20.0693 33.1417 25.4065 34.8418 27.653 39.1943C29.9008 43.5456 28.2069 48.9022 23.8702 51.1581Z" fill="#1A1919"/>
<path fill-rule="evenodd" clip-rule="evenodd" d="M10.3867 64.8181C7.2709 66.4385 3.4363 65.2169 1.82179 62.0897C0.206082 58.9625 1.42328 55.1139 4.54032 53.4935C7.65496 51.8731 11.4908 53.0947 13.1041 56.222C14.7198 59.3492 13.5026 63.1977 10.3867 64.8181Z" fill="#1A1919"/>
<path fill-rule="evenodd" clip-rule="evenodd" d="M5.64387 75.6649C3.74885 76.6497 1.41678 75.9078 0.434356 74.0059C-0.548072 72.1039 0.192361 69.7622 2.08739 68.7774C3.98362 67.7913 6.31568 68.5345 7.29691 70.4364C8.27934 72.3384 7.5389 74.6789 5.64387 75.6649Z" fill="#1A1919"/>
<path fill-rule="evenodd" clip-rule="evenodd" d="M56.4464 67.4076C54.8716 74.9042 47.5407 79.7001 40.0702 78.1208C32.6008 76.5415 27.8223 69.1827 29.3959 61.6849C30.9707 54.1883 38.3015 49.3912 45.7721 50.9717C53.2414 52.5522 58.0211 59.9098 56.4464 67.4076Z" fill="#1A1919"/>
<path fill-rule="evenodd" clip-rule="evenodd" d="M32.1709 84.0891C30.8802 90.236 24.8689 94.1679 18.7444 92.8726C12.6198 91.5772 8.70097 85.544 9.99281 79.3971C11.2822 73.2502 17.2936 69.3183 23.4181 70.6136C29.5427 71.909 33.4615 77.9422 32.1709 84.0891Z" fill="#1A1919"/>
<path fill-rule="evenodd" clip-rule="evenodd" d="M22.4722 107.015C21.4645 111.812 16.7739 114.88 11.9941 113.87C7.21565 112.859 4.1588 108.151 5.16531 103.354C6.17302 98.5579 10.8636 95.4887 15.6421 96.5001C20.4218 97.5115 23.4787 102.219 22.4722 107.015Z" fill="#1A1919"/>
<path fill-rule="evenodd" clip-rule="evenodd" d="M24.4657 126.139C23.7421 129.586 20.3722 131.791 16.9386 131.065C13.5049 130.338 11.3077 126.955 12.0312 123.509C12.7548 120.063 16.1247 117.857 19.5584 118.585C22.9932 119.311 25.1905 122.693 24.4657 126.139Z" fill="#1A1919"/>
<path fill-rule="evenodd" clip-rule="evenodd" d="M29.827 136.692C29.3864 138.789 27.336 140.13 25.2472 139.688C23.1595 139.246 21.8231 137.189 22.2638 135.093C22.7032 132.996 24.7535 131.655 26.8424 132.097C28.9301 132.538 30.2665 134.597 29.827 136.692Z" fill="#1A1919"/>
<path fill-rule="evenodd" clip-rule="evenodd" d="M56.0049 90.3627C61.0001 96.1556 60.3716 104.916 54.5999 109.931C48.8269 114.945 40.0982 114.313 35.103 108.519C30.1066 102.727 30.7363 93.966 36.508 88.9526C42.281 83.938 51.0097 84.5699 56.0049 90.3627Z" fill="#1A1919"/>
<path fill-rule="evenodd" clip-rule="evenodd" d="M54.5552 119.854C58.6523 124.604 58.1358 131.787 53.403 135.898C48.6703 140.01 41.5127 139.491 37.4181 134.741C33.321 129.992 33.8375 122.809 38.5703 118.698C43.303 114.587 50.4593 115.104 54.5552 119.854Z" fill="#1A1919"/>
<path fill-rule="evenodd" clip-rule="evenodd" d="M66.8786 141.474C70.0751 145.181 69.6718 150.785 65.9793 153.993C62.2868 157.202 56.7016 156.798 53.5051 153.091C50.3086 149.385 50.7119 143.779 54.4045 140.571C58.0982 137.364 63.6821 137.768 66.8786 141.474Z" fill="#1A1919"/>
<path fill-rule="evenodd" clip-rule="evenodd" d="M83.2585 151.449C85.5544 154.112 85.2655 158.139 82.612 160.444C79.9584 162.75 75.9457 162.459 73.6497 159.796C71.3526 157.133 71.6415 153.105 74.295 150.801C76.9486 148.495 80.9613 148.785 83.2585 151.449Z" fill="#1A1919"/>
<path fill-rule="evenodd" clip-rule="evenodd" d="M94.8736 153.548C96.2702 155.168 96.0945 157.617 94.4799 159.019C92.8666 160.421 90.4262 160.244 89.0296 158.625C87.6318 157.005 87.8088 154.556 89.4221 153.154C91.0354 151.752 93.4771 151.929 94.8736 153.548Z" fill="#1A1919"/>
</svg>
