<svg width="92" height="150" viewBox="0 0 92 150" fill="none" xmlns="http://www.w3.org/2000/svg">
<path d="M25.4063 98.796V57.0181V56.1151H25.4648V56.0817C25.435 55.7816 25.435 55.4468 25.435 55.1133L25.4063 54.1768H26.2113H51.7811H52.5574V55.0799V98.9961H51.0059V56.015H27.0151C27.0449 56.3165 27.0449 56.6166 27.0736 56.9848L27.1309 57.9532H26.9876V98.796H25.4063ZM53.9942 98.9961V55.0799V54.1768H54.7693H80.3391H81.1441V55.0799V98.9961H79.5628V56.015H55.5743V98.9961H53.9942ZM109.788 55.1133C109.759 55.4468 109.759 55.7816 109.759 56.0817C109.731 56.4165 109.731 56.718 109.702 56.9848V57.0181V98.796H108.151V57.9532H108.093L108.151 56.9848C108.151 56.6166 108.18 56.3165 108.18 56.015H84.1323V98.9961H82.5797V55.0799V54.1768H83.356H108.984H109.788V55.1133ZM27.1023 50.6672H51.0059V11.029C44.3116 14.5373 38.5943 20.0532 34.4284 26.9043C30.2912 33.7221 27.6481 41.8779 27.1023 50.6672ZM51.7811 52.5054H26.2686H25.435L25.4923 51.537C25.9235 42.0112 28.6812 33.1872 33.1349 25.8678C37.732 18.3484 44.0811 12.3656 51.4944 8.82268L52.5574 8.28777V9.65773V51.6037V52.5054H51.7811ZM100.767 26.871C96.5727 19.9851 90.8267 14.4719 84.1323 10.9957V50.6672H108.093C107.548 41.8445 104.904 33.6888 100.767 26.871ZM83.6439 8.75598C91.0847 12.3323 97.4636 18.2817 102.031 25.8011C106.512 33.1552 109.3 41.9779 109.731 51.537L109.759 52.5054H108.955H83.356H82.5797V51.6037V9.62438V8.25442L83.6439 8.75598ZM73.9613 7.48607C71.8927 7.1179 69.7668 6.9178 67.6121 6.9178C65.4277 6.9178 63.2731 7.1179 61.2056 7.48607C59.3079 7.85424 57.4124 8.35445 55.5743 9.02277V50.6672H79.5628V8.98943C77.7534 8.35446 75.8579 7.85424 73.9613 7.48607ZM67.6121 5.07963C69.8241 5.07963 72.036 5.27972 74.1918 5.68124C76.4037 6.08275 78.5297 6.68436 80.5983 7.45272L81.1441 7.68615V8.32111V51.6037V52.5054H80.3391H54.7693H53.9942V51.6037V8.35445V7.68615L54.5388 7.48607C56.6086 6.71771 58.7632 6.11477 60.9763 5.68124C63.1584 5.27972 65.3715 5.07963 67.6121 5.07963ZM67.6121 -4.57764e-05C80.3689 -4.57764e-05 91.9183 6.01472 100.307 15.7405C108.668 25.501 113.839 38.9365 113.839 53.7753V54.7118C113.811 55.0466 113.811 55.3467 113.811 55.6135V98.796H112.231V55.6135V55.5815C112.259 55.28 112.259 54.9785 112.259 54.6784V53.7753C112.259 39.4381 107.26 26.4695 99.1871 17.0451C91.1133 7.65281 79.9378 1.83681 67.6121 1.83681C55.2578 1.83681 44.1109 7.65281 36.0372 17.0451C27.9347 26.4695 22.9364 39.4381 22.9364 53.7753V98.796H21.3562V53.7753C21.3562 38.9365 26.5564 25.501 34.9169 15.7405C43.2773 6.01472 54.8267 -4.57764e-05 67.6121 -4.57764e-05Z" fill="#1A1919"/>
<path fill-rule="evenodd" clip-rule="evenodd" d="M117.749 135.127H121.628C122.979 134.825 124.243 133.723 125.276 132.085C126.627 129.879 127.546 126.771 127.718 123.261C128.15 114.27 120.22 109.725 124.961 102.806H119.617C119.474 103.041 119.329 103.409 119.215 103.843C117.893 109.424 121.974 113.369 121.513 123.128C121.399 126.571 120.106 132.285 117.749 135.127ZM110.566 135.127H115.135C117.692 133.288 119.445 126.202 119.588 122.994C120.018 114.104 115.91 109.692 117.49 102.806H111.602C111.027 106.349 113.009 113.637 112.549 123.128C112.434 126.737 111.946 131.35 110.566 135.127ZM103.412 135.127H108.499C109.677 132.52 110.51 127.774 110.682 122.994C111.112 114.338 109.36 109.892 109.677 102.806H103.412V135.127ZM10.5564 139.338H124.674V143.682H10.5564V139.338ZM18.7736 145.621H32.1897V150H18.7736V145.621ZM103.01 145.621H116.457V150H103.01V145.621ZM15.5835 102.806C15.7268 103.041 15.8702 103.409 15.986 103.843C17.3368 109.424 13.2282 113.369 13.7156 123.128C13.8027 126.571 15.1237 132.285 17.4514 135.127H13.5722C12.2226 134.825 10.9578 133.723 9.95215 132.085C8.60136 129.879 7.68287 126.771 7.50972 123.261C7.05105 114.27 15.009 109.725 10.24 102.806H15.5835ZM23.6286 102.806C24.2031 106.349 22.1918 113.637 22.6505 123.128C22.7663 126.737 23.2834 131.35 24.6342 135.127H20.0945C17.5374 133.288 15.7566 126.202 15.6408 122.994C15.1822 114.104 19.3182 109.692 17.7094 102.806H23.6286ZM31.817 102.806V135.127H26.7028C25.5539 132.52 24.7202 127.774 24.5184 122.994C24.0873 114.338 25.8692 109.892 25.5241 102.806H31.817ZM61.2076 116.11L60.4611 118.616C61.3807 117.78 62.4139 117.045 63.5353 116.377C62.7877 116.243 61.9827 116.143 61.2076 116.11ZM73.0734 113.369L67.7299 95.587C65.8333 101.47 63.7647 107.552 62.0125 113.335C63.994 113.535 65.8619 113.937 67.6141 114.538C69.3387 113.937 71.1779 113.535 73.0734 113.369ZM74.6822 118.55L73.9357 116.11C73.1594 116.143 72.4129 116.243 71.6664 116.377C72.7581 117.012 73.7637 117.747 74.6822 118.55ZM37.993 135.127C36.7581 123.997 48.8532 116.61 56.7252 116.11L57.2722 116.042L53.4789 127.674C53.0478 129.01 52.6465 130.147 52.2726 131.082C51.7268 132.42 51.2383 133.488 50.7499 134.258C50.5492 134.592 50.3187 134.893 50.118 135.127H37.993ZM40.3495 121.49C36.9874 125.233 35.1195 129.912 35.5231 134.76C35.5231 134.893 35.5506 134.993 35.5506 135.127H33.7125V102.806H40.3495V121.49ZM49.5435 115.173C46.7846 116.277 44.3422 117.78 42.2449 119.619V102.806H49.5435V115.173ZM84.1354 114.638V102.806H78.4169L77.7851 100.668H129.213C135.735 100.735 136.252 111.095 131.224 112.432C131.023 112.5 130.793 112.533 130.563 112.533C129.328 112.533 128.351 111.397 128.351 109.992C128.351 108.556 129.328 107.419 130.563 107.419C131.224 107.419 131.827 107.753 132.229 108.288C133.149 106.316 131.943 102.941 129.213 102.941C128.093 102.941 127.115 103.443 126.397 104.278C122.921 109.959 130.104 113.67 129.644 123.396C129.442 127.339 128.38 130.849 126.829 133.388C126.426 134.023 125.995 134.625 125.535 135.127H127.662V137.233H99.2762H96.9197H89.0765H79.0212H78.9341H76.2061H75.142V136.598C75.9183 136.396 76.549 136.03 77.01 135.495C77.6991 133.655 78.0156 131.684 77.8424 129.679C77.7851 129.044 77.6991 128.409 77.5546 127.807L77.0661 126.269C75.5732 122.293 72.0964 119.185 67.6141 117.48C63.0744 119.185 59.5988 122.326 58.1047 126.337L57.7033 127.607C57.5302 128.275 57.4155 128.977 57.3582 129.679C57.1862 131.918 57.5875 134.125 58.5071 136.196C58.967 136.463 59.483 136.598 60.0586 136.598V137.233H58.9956H56.2665H55.9787H47.5323H38.3669H35.9256H7.53954V135.127H9.69415C9.20566 134.625 8.77451 134.023 8.37202 133.388C6.82171 130.849 5.7576 127.339 5.58559 123.396C5.09711 113.67 12.2788 109.959 8.83299 104.278C8.11402 103.443 7.10838 102.941 6.01674 102.941C3.25783 102.941 2.05268 106.316 2.99983 108.288C3.40117 107.753 4.00548 107.419 4.66596 107.419C5.87342 107.419 6.87905 108.556 6.87905 109.992C6.87905 111.397 5.87342 112.533 4.66596 112.533C4.43663 112.533 4.20614 112.5 3.9768 112.432C-1.05139 111.095 -0.534235 100.735 6.01674 100.668H60.4886L59.8006 102.806H51.439V114.505C53.0203 114.003 54.6864 113.637 56.38 113.435C56.9843 113.369 57.5875 113.302 58.162 113.268C61.438 103.275 64.627 93.382 67.8445 83.3881C68.6782 81.0817 70.2858 81.0483 70.9475 83.3214L80.0269 113.602C81.4338 113.837 82.8133 114.172 84.1354 114.638ZM93.099 119.719V102.806H86.0595V115.34C88.7026 116.443 91.0877 117.948 93.099 119.719ZM99.6488 135.127H101.487V102.806H94.9945V121.658C98.2705 125.367 100.08 129.98 99.7073 134.76C99.6775 134.893 99.6775 134.993 99.6488 135.127ZM86.9505 135.127H97.3796C98.7877 124.999 88.0422 117.145 80.8594 116.443L85.3406 131.383C85.6284 132.252 85.9162 133.088 86.2602 133.957C86.462 134.391 86.6914 134.793 86.9505 135.127Z" fill="#1A1919"/>
</svg>
