<svg width="157" height="200" viewBox="0 0 157 200" fill="none" xmlns="http://www.w3.org/2000/svg">
<path fill-rule="evenodd" clip-rule="evenodd" d="M8 154.75C53.3333 167.026 85.3906 153.401 149.568 96.1978C149.568 96.1978 62.5729 177.5 15.3438 151.557L8 154.75Z" fill="#1A1919"/>
<path fill-rule="evenodd" clip-rule="evenodd" d="M191.088 41.0312C166.39 69.4167 132.989 84.4062 108.046 95.5052C95.5775 101.052 84.3327 106.661 75.7441 115.396C67.1608 124.135 61.3535 135.99 59.7129 153.552L62.7233 156.073C62.7233 156.073 63.0306 153.734 63.0618 153.406C67.2598 155.891 84.0254 163.87 106.609 155.677C132.775 146.182 165.119 117.354 191.02 41L191.088 41.0312ZM184.697 49.0625C159.588 117.943 129.458 143.948 105.494 152.646C82.4525 161.005 65.6868 153.901 63.0879 152.693C64.8171 136.375 70.166 125.672 78.0566 117.646C86.14 109.422 96.9785 103.958 109.364 98.4427C132.223 88.276 160.265 77.8958 184.702 49.0677L184.697 49.0625Z" fill="#1A1919"/>
</svg>
