<svg width="93" height="144" viewBox="0 0 93 144" fill="none" xmlns="http://www.w3.org/2000/svg">
<path fill-rule="evenodd" clip-rule="evenodd" d="M74.6387 50.9512L126.472 61.1593V85.6026L74.6387 91.6899V50.9512Z" fill="#1A1919"/>
<path fill-rule="evenodd" clip-rule="evenodd" d="M22.7246 50.7385L74.7469 41.1092V1.52588e-05L22.7246 26.7813V50.7385Z" fill="#1A1919"/>
<path fill-rule="evenodd" clip-rule="evenodd" d="M74.748 0.000144958V41.1093L149.081 56.0723V38.8511L74.748 0.000144958Z" fill="#1A1919"/>
<path fill-rule="evenodd" clip-rule="evenodd" d="M150 88.2612L74.9999 101.964V144L150 104.927V88.2612Z" fill="#1A1919"/>
<path fill-rule="evenodd" clip-rule="evenodd" d="M24.2656 116.092V92.8908L75.0009 101.964V144L24.2656 116.092Z" fill="#1A1919"/>
<path fill-rule="evenodd" clip-rule="evenodd" d="M0 80.788V64.8626L74.6377 50.9512V91.6899L0 80.788Z" fill="#1A1919"/>
<path fill-rule="evenodd" clip-rule="evenodd" d="M74.7469 41.1092V1.52588e-05L22.7246 26.7813V50.7385L74.7469 41.1092Z" fill="#1A1919"/>
</svg>
