<svg width="69" height="176" viewBox="0 0 69 176" fill="none" xmlns="http://www.w3.org/2000/svg">
<path fill-rule="evenodd" clip-rule="evenodd" d="M111.914 151.731C119.078 146.574 125.308 139.966 129.439 130.004C138.272 108.692 133.175 84.3509 123.53 66.116C110.107 40.7393 85.5757 20.5485 57.5124 13.3537C44.1332 9.92453 51.4326 13.4254 44.4269 6.78471C42.1613 4.63643 37.4346 -1.908 32.7299 0.540253C31.5204 4.33246 33.2613 10.4774 33.3867 14.9239C31.6138 15.6686 28.1166 18.513 26.8423 19.7979C22.0215 24.6553 22.3079 30.4531 20.3874 36.1467C19.593 38.5027 17.256 42.0885 17.208 44.3623C17.1112 48.915 24.4813 55.0805 27.4725 56.8724C30.6773 58.7924 32.6278 58.8661 36.6803 57.8287C38.7757 57.2918 43.6653 56.22 45.3755 55.5232C48.6363 54.1952 47.8687 49.4625 44.2474 49.4944C42.688 49.5077 37.2203 51.2584 35.1223 51.731C31.3321 52.5844 29.7274 50.7766 27.1808 48.9748C20.7258 44.4087 25.6234 41.4036 27.6133 32.8463C28.7541 27.9385 29.1213 26.0583 34.2519 22.1533C39.851 17.8919 40.1534 17.8454 40.1154 11.5452C41.1594 12.2706 41.5305 12.7584 42.4057 13.8076C43.1479 14.6983 43.8055 15.8889 44.4096 16.3615C45.4456 17.1731 50.0108 17.9655 51.5741 18.3584C56.5872 19.6154 60.9361 20.8936 65.4766 22.7373C88.4301 32.0625 110.924 51.4874 122.141 74.3089C130.816 91.9565 134.459 113.609 125.283 132.699C121.05 141.506 114.219 148.245 106.226 153.139C98.9115 157.619 91.0528 160.411 82.672 162.168C92.2216 161.731 106.042 155.957 111.914 151.731Z" fill="#1A1919"/>
<path fill-rule="evenodd" clip-rule="evenodd" d="M56.3926 163.021C49.2595 162.518 42.8766 161.175 34.337 157.26C20.9071 151.103 9.04121 140.384 5.32177 125.802C2.13568 113.313 4.55746 98.438 11.0732 90.1806C18.2731 81.0578 27.5403 76.444 40.0677 75.1691C78.6833 71.2409 114.065 103.749 89.4978 141.732C82.1764 153.053 69.2351 162.303 57.2177 168.362C54.9949 169.483 52.772 170.625 52.4529 170.938C49.7715 173.566 52.0077 177.888 58.0254 175.094C61.1281 173.654 64.1106 171.986 66.9569 170.328C78.7747 163.44 89.1494 154.282 96.0929 143.298C103.792 131.116 106.862 113.414 99.9913 98.6032C87.4352 71.5355 48.0406 61.5705 22.4037 74.1139C10.5718 79.9017 1.32864 90.7845 0.148462 108.077C-1.65252 134.463 13.1258 150.973 33.9418 158.535C40.9308 161.073 48.9524 162.769 56.3926 163.021Z" fill="#1A1919"/>
</svg>
