<svg width="50" height="50" viewBox="0 0 50 50" fill="none" xmlns="http://www.w3.org/2000/svg">
<g clip-path="url(#clip0_1266_10739)">
<path fill-rule="evenodd" clip-rule="evenodd" d="M24.5 18.1579L41.5136 21.4621V29.3734L24.5 31.3441V18.1579Z" fill="white" stroke="white" stroke-miterlimit="10"/>
<path fill-rule="evenodd" clip-rule="evenodd" d="M7.45898 18.0888L24.5351 14.9725V1.66669L7.45898 10.3348V18.0888Z" fill="white" stroke="white" stroke-miterlimit="10"/>
<path fill-rule="evenodd" clip-rule="evenodd" d="M24.5352 1.66669V14.9725L48.9342 19.8149V14.2417L24.5352 1.66669Z" fill="white" stroke="white" stroke-miterlimit="10"/>
<path fill-rule="evenodd" clip-rule="evenodd" d="M49.2374 30.233L24.6191 34.6683V47.945L49.2374 35.6276V30.233Z" fill="white" stroke="white" stroke-miterlimit="10"/>
<path fill-rule="evenodd" clip-rule="evenodd" d="M7.96484 39.2411V31.7316L24.6187 34.6685V47.9452L7.96484 39.2411Z" fill="white" stroke="white" stroke-miterlimit="10"/>
<path fill-rule="evenodd" clip-rule="evenodd" d="M0 27.8146V22.66L24.4994 18.1573V31.3435L0 27.8146Z" fill="white" stroke="white" stroke-miterlimit="10"/>
<path fill-rule="evenodd" clip-rule="evenodd" d="M24.5351 14.9725V1.66669L7.45898 10.3348V18.0888L24.5351 14.9725Z" fill="white" stroke="white" stroke-miterlimit="10"/>
</g>
<defs>
<clipPath id="clip0_1266_10739">
<rect width="50" height="50" fill="white"/>
</clipPath>
</defs>
</svg>
