<svg width="30" height="30" viewBox="0 0 30 30" fill="none" xmlns="http://www.w3.org/2000/svg">
<g clip-path="url(#clip0_930_22684)">
<path d="M18.125 6.87498C18.47 6.87498 18.75 6.59496 18.75 6.24996V4.00998L25.1825 10.4425C25.305 10.5637 25.465 10.625 25.625 10.625C25.785 10.625 25.945 10.5638 26.0663 10.4425C26.31 10.1987 26.31 9.80244 26.0663 9.55869L19.6325 3.12498H21.875C22.22 3.12498 22.5 2.84496 22.5 2.49996C22.5 2.15496 22.22 1.875 21.875 1.875H18.125C18.0888 1.875 18.0563 1.89 18.0213 1.89627C17.9763 1.90377 17.93 1.90629 17.8863 1.92375C17.81 1.95498 17.74 2.00127 17.6825 2.05875C17.6775 2.06373 17.6763 2.07123 17.67 2.07627C17.6201 2.13 17.5763 2.19129 17.5475 2.26002C17.5163 2.33877 17.5 2.42004 17.5 2.50254V6.25002C17.5001 6.59502 17.78 6.87498 18.125 6.87498Z" fill="#B0292E" stroke="#B0292E" stroke-width="0.8"/>
<path d="M29.375 21.875H23.75V17.5C23.75 17.155 23.47 16.8749 23.125 16.8749H17.5V12.4999C17.5 12.1549 17.2199 11.8749 16.8749 11.8749H11.2499V7.5C11.2499 7.155 10.9699 6.87498 10.6249 6.87498H4.99992V2.50002C4.99998 2.15502 4.72002 1.875 4.37502 1.875H0.625019C0.280019 1.875 0 2.43717 0 3C0 3.56283 0.155 4 0.5 4H3V7.5C3 7.845 3.12498 9 4 9H9V12.4999C9 12.8449 9 14 10 14H15.5V17.5C15.5 17.845 15.6251 19 16.5 19H21.5V22.5C21.5 22.845 21.875 24 22.5 24H28V27.5C28 27.845 28.5 28 29 28C29.345 28 30.0001 27.845 30.0001 27.5V22.5C30 22.155 29.72 21.875 29.375 21.875Z" fill="#B0292E"/>
</g>
<defs>
<clipPath id="clip0_930_22684">
<rect width="30" height="30" fill="white"/>
</clipPath>
</defs>
</svg>
