<svg width="30" height="30" viewBox="0 0 30 30" fill="none" xmlns="http://www.w3.org/2000/svg">
<circle cx="15" cy="15" r="15" fill="white"/>
<g clip-path="url(#clip0_1266_12469)">
<path d="M18.75 5H11.25C7.79875 5 5 7.79875 5 11.25V18.75C5 22.2013 7.79875 25 11.25 25H18.75C22.2013 25 25 22.2013 25 18.75V11.25C25 7.79875 22.2013 5 18.75 5ZM23.125 18.75C23.125 21.1625 21.1625 23.125 18.75 23.125H11.25C8.8375 23.125 6.875 21.1625 6.875 18.75V11.25C6.875 8.8375 8.8375 6.875 11.25 6.875H18.75C21.1625 6.875 23.125 8.8375 23.125 11.25V18.75Z" fill="black"/>
<path d="M15 10C12.2387 10 10 12.2387 10 15C10 17.7613 12.2387 20 15 20C17.7613 20 20 17.7613 20 15C20 12.2387 17.7613 10 15 10ZM15 18.125C13.2775 18.125 11.875 16.7225 11.875 15C11.875 13.2763 13.2775 11.875 15 11.875C16.7225 11.875 18.125 13.2763 18.125 15C18.125 16.7225 16.7225 18.125 15 18.125Z" fill="black"/>
<path d="M20.3752 10.2912C20.7432 10.2912 21.0415 9.99295 21.0415 9.62499C21.0415 9.25703 20.7432 8.95874 20.3752 8.95874C20.0073 8.95874 19.709 9.25703 19.709 9.62499C19.709 9.99295 20.0073 10.2912 20.3752 10.2912Z" fill="black"/>
</g>
<defs>
<clipPath id="clip0_1266_12469">
<rect width="20" height="20" fill="white" transform="translate(5 5)"/>
</clipPath>
</defs>
</svg>
