<svg width="16" height="17" viewBox="0 0 16 17" fill="none" xmlns="http://www.w3.org/2000/svg">
<path fill-rule="evenodd" clip-rule="evenodd" d="M2.83635 6.85196C2.83635 3.75611 5.33216 1.2364 8.39999 1.2364C11.4678 1.2364 13.9636 3.75611 13.9636 6.85196C13.9636 10.7902 9.32808 14.6279 8.39999 14.8331C7.47189 14.6287 2.83635 10.791 2.83635 6.85196ZM1.59998 6.85193C1.59998 11.4965 6.92129 16.0727 8.39998 16.0727C9.87867 16.0727 15.2 11.4965 15.2 6.85193C15.2 3.0736 12.1495 0 8.39998 0C4.6505 0 1.59998 3.0736 1.59998 6.85193ZM6.95885 6.80082C6.95885 6.0046 7.60588 5.35757 8.40128 5.35757C9.19667 5.35757 9.8437 6.0046 9.8437 6.80082C9.8437 7.59621 9.19667 8.24242 8.40128 8.24242C7.60588 8.24242 6.95885 7.59621 6.95885 6.80082ZM5.72248 6.80074C5.72248 8.27779 6.92423 9.47871 8.40127 9.47871C9.87831 9.47871 11.0801 8.27779 11.0801 6.80074C11.0801 5.32288 9.87831 4.12113 8.40127 4.12113C6.92423 4.12113 5.72248 5.32288 5.72248 6.80074Z" fill="#B0292E"/>
</svg>
