<svg width="20" height="20" viewBox="0 0 20 20" fill="none" xmlns="http://www.w3.org/2000/svg">
<path d="M9.8299 0.615234C6.23623 0.615234 3.31249 3.53897 3.31249 7.13264C3.31249 11.6495 9.83631 19.3652 9.83631 19.3652C9.83631 19.3652 16.3473 11.4274 16.3473 7.13264C16.3473 3.53897 13.4237 0.615234 9.8299 0.615234ZM11.7963 9.04095C11.2541 9.58305 10.5421 9.85416 9.8299 9.85416C9.11785 9.85416 8.40557 9.58305 7.86358 9.04095C6.77925 7.95673 6.77925 6.19251 7.86358 5.10818C8.38863 4.5829 9.08707 4.29359 9.8299 4.29359C10.5727 4.29359 11.2711 4.58302 11.7963 5.10818C12.8807 6.19251 12.8807 7.95673 11.7963 9.04095Z" fill="#B0292E"/>
</svg>
