<svg width="125" height="24" viewBox="0 0 125 24" fill="none" xmlns="http://www.w3.org/2000/svg">
<path fill-rule="evenodd" clip-rule="evenodd" d="M12.3923 8.86108L20.3037 10.4294V14.1845L12.3923 15.1199V8.86108Z" fill="white" stroke="white" stroke-miterlimit="10"/>
<path fill-rule="evenodd" clip-rule="evenodd" d="M4.46851 8.82867L12.4089 7.3495V1.03394L4.46851 5.14823V8.82867Z" fill="white" stroke="white" stroke-miterlimit="10"/>
<path fill-rule="evenodd" clip-rule="evenodd" d="M12.4092 1.03394V7.3495L23.7548 9.64796V7.00264L12.4092 1.03394Z" fill="white" stroke="white" stroke-miterlimit="10"/>
<path fill-rule="evenodd" clip-rule="evenodd" d="M23.895 14.593L12.4475 16.6982V22.9999L23.895 17.1535V14.593Z" fill="white" stroke="white" stroke-miterlimit="10"/>
<path fill-rule="evenodd" clip-rule="evenodd" d="M4.70312 18.8685V15.3042L12.4472 16.6982V22.9999L4.70312 18.8685Z" fill="white" stroke="white" stroke-miterlimit="10"/>
<path fill-rule="evenodd" clip-rule="evenodd" d="M1 13.4449V10.9983L12.3922 8.86108V15.1199L1 13.4449Z" fill="white" stroke="white" stroke-miterlimit="10"/>
<path fill-rule="evenodd" clip-rule="evenodd" d="M12.4089 7.3495V1.03394L4.46851 5.14823V8.82867L12.4089 7.3495Z" fill="white" stroke="white" stroke-miterlimit="10"/>
<path d="M42.6637 13.1799H39.074L38.1766 11.1111H32.0382L31.1408 13.1799H27.5662L33.0017 1.36401H37.2612L42.6637 13.1799ZM35.0578 4.21024L33.1316 8.61243H37.0803L35.1558 4.21024H35.0578Z" fill="white"/>
<path d="M56.3993 1.36401L51.7801 5.51798L57.1502 13.1799H53.184L49.3976 7.65265L46.8837 9.90306V13.1799H43.6196V1.36401H46.8837V6.39478L52.2862 1.36401H56.3993Z" fill="white"/>
<path d="M66.1518 4.92175C66.1085 4.34863 65.8474 3.94596 65.3685 3.71375C64.8896 3.48153 64.2258 3.36555 63.377 3.36579C62.5939 3.36579 62.0064 3.46782 61.6144 3.67189C61.2224 3.87595 61.0267 4.16579 61.0271 4.54141C61.0271 4.86146 61.144 5.09864 61.3779 5.25296C61.6117 5.40729 61.968 5.51211 62.4469 5.56743L66.5276 6.04714C67.7567 6.19054 68.6869 6.54359 69.3182 7.10629C69.9496 7.66898 70.2651 8.50744 70.2648 9.62167C70.2648 10.6367 69.9956 11.4311 69.4572 12.0049C68.9187 12.5788 68.1624 12.9791 67.1881 13.206C66.2144 13.4319 64.9985 13.545 63.5406 13.5452C62.1476 13.5452 60.9832 13.4239 60.0475 13.1813C59.1118 12.9386 58.3747 12.5 57.8363 11.8655C57.2978 11.23 57.0067 10.3501 56.9629 9.22567H60.684C60.7273 9.95361 61.0049 10.4527 61.5168 10.723C62.0287 10.9933 62.7521 11.1286 63.6871 11.1289C65.4934 11.1289 66.3967 10.6985 66.397 9.83787C66.397 9.45206 66.258 9.17362 65.9802 9.00256C65.7024 8.83149 65.2917 8.7069 64.7482 8.62876L61.0429 8.14905C59.8028 8.00565 58.8645 7.66595 58.2279 7.12995C57.5913 6.59394 57.2729 5.79685 57.2727 4.73868C57.2727 3.38181 57.8224 2.41923 58.9218 1.85096C60.0212 1.28268 61.5445 0.999032 63.4918 1C65.4499 1 66.9867 1.29239 68.1024 1.87716C69.2181 2.46194 69.8084 3.4768 69.8732 4.92175H66.1518Z" fill="white"/>
<path d="M75.1154 1.3645H71.8513V13.18H75.1154V1.3645Z" fill="white"/>
<path d="M89.4673 2.57998C90.7835 3.63379 91.4416 5.19776 91.4416 7.27189C91.4416 9.34602 90.7835 10.9099 89.4673 11.9634C88.1511 13.017 86.3562 13.5438 84.0827 13.5438C81.8093 13.5438 80.0144 13.017 78.6982 11.9634C77.382 10.9101 76.7239 9.34626 76.7239 7.27189C76.7239 5.19752 77.382 3.63355 78.6982 2.57998C80.0144 1.52666 81.8093 1 84.0827 1C86.3562 1 88.1511 1.52666 89.4673 2.57998ZM86.8892 9.87826C87.5422 9.26583 87.8685 8.39704 87.8681 7.27189C87.8676 6.14675 87.5413 5.27796 86.8892 4.66552C86.2358 4.05284 85.2999 3.74662 84.0813 3.74686C82.8515 3.74686 81.9131 4.05308 81.2663 4.66552C80.6194 5.27796 80.2956 6.14675 80.2949 7.27189C80.2949 8.39728 80.6187 9.26607 81.2663 9.87826C81.9139 10.4905 82.8522 10.7967 84.0813 10.7969C85.3001 10.7969 86.2361 10.4907 86.8892 9.87826Z" fill="white"/>
<path d="M103.455 1.36401H108.775V13.1799H105.511V4.54145H105.43L102.165 13.1799H99.521L96.2077 4.40897H96.1101V13.1799H92.9924V1.36401H98.2151L100.81 8.82754H100.892L103.455 1.36401Z" fill="white"/>
<path d="M124.829 13.1799H121.239L120.342 11.1111H114.203L113.306 13.1799H109.732L115.166 1.36401H119.427L124.829 13.1799ZM117.223 4.21024L115.297 8.61243H119.246L117.321 4.21024H117.223Z" fill="white"/>
<path d="M97.6204 14.7851H99.3245V19.9847C99.3245 20.5081 99.2495 20.9345 99.0994 21.264C98.9494 21.5936 98.655 21.8483 98.2163 22.0284C97.7777 22.2087 97.1464 22.2987 96.3224 22.2984C95.5396 22.2984 94.9319 22.2067 94.4992 22.0233C94.0665 21.8398 93.7674 21.607 93.6018 21.3248C93.4369 21.0429 93.3427 20.7115 93.3193 20.3308H95.2089C95.2618 20.7659 95.6327 20.9834 96.3217 20.9834C96.6687 20.9834 96.9336 20.9444 97.1165 20.8662C97.2993 20.7881 97.4229 20.6789 97.4873 20.5387C97.5519 20.3991 97.5842 20.214 97.5842 19.9832V19.1181H97.5404C97.34 19.3583 97.0864 19.5469 96.8002 19.6684C96.4796 19.8075 96.1338 19.8771 95.785 19.8726C94.9786 19.8726 94.3413 19.6466 93.8732 19.1945C93.4051 18.7425 93.1711 18.0985 93.1714 17.2626C93.1714 16.4199 93.4053 15.7742 93.8732 15.3256C94.341 14.8769 94.9783 14.6526 95.785 14.6526C96.1427 14.6477 96.4973 14.719 96.826 14.8619C97.1202 14.9869 97.3762 15.1892 97.5677 15.4478H97.6208L97.6204 14.7851ZM97.2762 18.1241C97.5057 17.9166 97.6204 17.6295 97.6204 17.2626C97.6204 16.8957 97.5057 16.6085 97.2762 16.4011C97.0465 16.1941 96.7138 16.0905 96.2783 16.0902C95.8544 16.0902 95.5322 16.1905 95.3116 16.3909C95.0909 16.5913 94.9805 16.8825 94.9802 17.2644C94.9802 17.6381 95.0907 17.9269 95.3116 18.131C95.5324 18.3351 95.8547 18.437 96.2783 18.4367C96.7136 18.4348 97.0462 18.3306 97.2762 18.1241Z" fill="white"/>
<path d="M100.243 14.7853H101.947V15.5092H102C102.23 15.2187 102.53 14.9923 102.87 14.8515C103.208 14.7125 103.61 14.6428 104.075 14.6426C104.212 14.645 104.348 14.6593 104.482 14.6852V16.6324C104.224 16.5594 103.956 16.5217 103.688 16.5203C103.187 16.5203 102.778 16.6342 102.46 16.8621C102.142 17.0899 101.984 17.4994 101.984 18.0904V20.2903H100.243V14.7853Z" fill="white"/>
<path d="M110.419 15.3459C110.958 15.8625 111.227 16.5931 111.227 17.5377C111.227 18.4824 110.958 19.2131 110.419 19.7299C109.881 20.2463 109.093 20.5044 108.057 20.5044C107.015 20.5044 106.226 20.2463 105.688 19.7299C105.15 19.2136 104.88 18.4828 104.877 17.5377C104.877 16.5931 105.146 15.8625 105.685 15.3459C106.224 14.8293 107.013 14.571 108.054 14.571C109.092 14.571 109.88 14.8293 110.419 15.3459ZM109.077 18.6438C109.31 18.3825 109.426 18.0138 109.426 17.5377C109.426 17.0617 109.31 16.6947 109.077 16.4367C108.844 16.1786 108.504 16.0495 108.057 16.0495C107.61 16.0495 107.27 16.1786 107.037 16.4367C106.805 16.6952 106.688 17.0622 106.689 17.5377C106.689 18.0133 106.805 18.382 107.037 18.6438C107.27 18.9059 107.61 19.0368 108.057 19.0366C108.504 19.0363 108.844 18.9054 109.077 18.6438Z" fill="white"/>
<path d="M116.137 20.2902V19.6074H116.084C115.554 20.1579 114.88 20.4332 114.062 20.4332C113.42 20.4332 112.908 20.2583 112.525 19.9084C112.143 19.5585 111.951 19.0334 111.951 18.3331V14.7852H113.69V17.7009C113.69 18.4555 114.052 18.8328 114.776 18.8328C115.118 18.8397 115.451 18.718 115.71 18.4911C115.972 18.2637 116.103 17.8916 116.105 17.3748V14.7852H117.835V20.2902H116.137Z" fill="white"/>
<path d="M120.498 19.7299V22.1562H118.759V14.7851H120.463V15.4988H120.516C120.715 15.2282 120.977 15.0127 121.279 14.8721C121.608 14.722 121.965 14.6474 122.326 14.6537C123.15 14.6537 123.802 14.9085 124.282 15.418C124.762 15.9276 125.001 16.648 125 17.5793C125 18.5105 124.761 19.2311 124.282 19.7409C123.803 20.2507 123.151 20.5054 122.326 20.5052C121.943 20.5052 121.603 20.4373 121.306 20.3014C121.014 20.1692 120.753 19.9745 120.542 19.7307L120.498 19.7299ZM120.807 16.5081C120.566 16.7665 120.445 17.1233 120.445 17.5785C120.445 18.0337 120.566 18.3905 120.807 18.649C121.049 18.9074 121.393 19.0366 121.84 19.0366C122.287 19.0366 122.626 18.9125 122.856 18.6642C123.085 18.4163 123.2 18.0544 123.2 17.5785C123.2 17.1027 123.085 16.7408 122.856 16.4928C122.626 16.2451 122.287 16.1211 121.84 16.1208C121.393 16.1206 121.049 16.2497 120.807 16.5081Z" fill="white"/>
</svg>
