<svg width="165" height="30" viewBox="0 0 165 30" fill="none" xmlns="http://www.w3.org/2000/svg">
<path fill-rule="evenodd" clip-rule="evenodd" d="M16.0664 11.0054L26.5297 13.0014V17.7806L16.0664 18.9711V11.0054Z" fill="white" stroke="white" stroke-miterlimit="10"/>
<path fill-rule="evenodd" clip-rule="evenodd" d="M5.5874 10.9635L16.0892 9.08095V1.04297L5.5874 6.27933V10.9635Z" fill="white" stroke="white" stroke-miterlimit="10"/>
<path fill-rule="evenodd" clip-rule="evenodd" d="M16.0903 1.04297V9.08095L31.0958 12.0063V8.63949L16.0903 1.04297Z" fill="white" stroke="white" stroke-miterlimit="10"/>
<path fill-rule="evenodd" clip-rule="evenodd" d="M31.2809 18.2998L16.1406 20.9791V28.9995L31.2809 21.5586V18.2998Z" fill="white" stroke="white" stroke-miterlimit="10"/>
<path fill-rule="evenodd" clip-rule="evenodd" d="M5.89844 23.742V19.2056L16.1405 20.9797V29.0001L5.89844 23.742Z" fill="white" stroke="white" stroke-miterlimit="10"/>
<path fill-rule="evenodd" clip-rule="evenodd" d="M1 16.8393V13.7255L16.0671 11.0054V18.9711L1 16.8393Z" fill="white" stroke="white" stroke-miterlimit="10"/>
<path fill-rule="evenodd" clip-rule="evenodd" d="M16.0892 9.08095V1.04297L5.5874 6.27933V10.9635L16.0892 9.08095Z" fill="white" stroke="white" stroke-miterlimit="10"/>
<path d="M56.1029 16.5012H51.3553L50.1684 13.8682H42.0499L40.863 16.5012H36.1353L43.3241 1.46289H48.9577L56.1029 16.5012ZM46.0436 5.08536L43.496 10.6881H48.7184L46.1732 5.08536H46.0436Z" fill="white"/>
<path d="M74.2693 1.46289L68.16 6.74974L75.2625 16.5012H70.0168L65.009 9.46659L61.6842 12.3307V16.5012H57.3672V1.46289H61.6842V7.86567L68.8294 1.46289H74.2693Z" fill="white"/>
<path d="M87.1687 5.99132C87.1114 5.26188 86.7661 4.74939 86.1327 4.45385C85.4994 4.15831 84.6214 4.01069 83.4987 4.011C82.4631 4.011 81.6861 4.14086 81.1676 4.40058C80.6492 4.6603 80.3903 5.02918 80.3909 5.50724C80.3909 5.91457 80.5455 6.21644 80.8548 6.41285C81.164 6.60926 81.6353 6.74268 82.2686 6.81309L87.6657 7.42362C89.2913 7.60614 90.5216 8.05547 91.3566 8.77163C92.1915 9.48778 92.6088 10.5549 92.6085 11.973C92.6085 13.2648 92.2524 14.2759 91.5403 15.0062C90.8281 15.7366 89.8278 16.2462 88.5393 16.5349C87.2514 16.8224 85.6434 16.9663 83.7152 16.9666C81.8728 16.9666 80.3328 16.8122 79.0953 16.5034C77.8577 16.1946 76.8829 15.6364 76.1707 14.8288C75.4586 14.02 75.0735 12.9001 75.0156 11.469H79.937C79.9943 12.3955 80.3615 13.0307 81.0385 13.3748C81.7155 13.7188 82.6723 13.8909 83.9089 13.8913C86.2979 13.8913 87.4926 13.3436 87.4929 12.2482C87.4929 11.7571 87.3092 11.4028 86.9417 11.1851C86.5743 10.9673 86.0311 10.8088 85.3123 10.7093L80.4118 10.0988C78.7716 9.91627 77.5306 9.48392 76.6887 8.80174C75.8468 8.11955 75.4257 7.10508 75.4253 5.75831C75.4253 4.03138 76.1524 2.80629 77.6064 2.08304C79.0605 1.35978 81.0752 0.998768 83.6507 1C86.2403 1 88.273 1.37213 89.7485 2.11639C91.2241 2.86065 92.0048 4.15229 92.0905 5.99132H87.1687Z" fill="white"/>
<path d="M99.0221 1.46338H94.7051V16.5012H99.0221V1.46338Z" fill="white"/>
<path d="M118.004 3.01089C119.744 4.35209 120.615 6.3426 120.615 8.98239C120.615 11.6222 119.744 13.6125 118.004 14.9534C116.263 16.2943 113.889 16.9648 110.882 16.9648C107.875 16.9648 105.501 16.2943 103.761 14.9534C102.02 13.6128 101.149 11.6225 101.149 8.98239C101.149 6.34229 102.02 4.35178 103.761 3.01089C105.501 1.6703 107.875 1 110.882 1C113.889 1 116.263 1.6703 118.004 3.01089ZM114.594 12.2996C115.458 11.5201 115.889 10.4144 115.888 8.98239C115.888 7.55039 115.456 6.44466 114.594 5.6652C113.73 4.88543 112.492 4.49569 110.88 4.496C109.254 4.496 108.013 4.88574 107.157 5.6652C106.302 6.44466 105.873 7.55039 105.872 8.98239C105.872 10.4147 106.301 11.5204 107.157 12.2996C108.014 13.0787 109.255 13.4685 110.88 13.4688C112.492 13.4688 113.73 13.0791 114.594 12.2996Z" fill="white"/>
<path d="M136.502 1.46289H143.539V16.5012H139.222V5.5069H139.114L134.797 16.5012H131.3L126.918 5.33828H126.788V16.5012H122.665V1.46289H129.572L133.005 10.9619H133.113L136.502 1.46289Z" fill="white"/>
<path d="M164.774 16.5012H160.026L158.839 13.8682H150.721L149.534 16.5012H144.807L151.995 1.46289H157.629L164.774 16.5012ZM154.715 5.08536L152.167 10.6881H157.39L154.844 5.08536H154.715Z" fill="white"/>
<path d="M128.79 18.5449H131.043V25.1626C131.043 25.8287 130.944 26.3715 130.746 26.7909C130.547 27.2102 130.158 27.5345 129.578 27.7636C128.997 27.9931 128.162 28.1077 127.073 28.1074C126.037 28.1074 125.234 27.9906 124.661 27.7572C124.089 27.5237 123.694 27.2274 123.475 26.8682C123.256 26.5094 123.132 26.0877 123.101 25.6031H125.6C125.67 26.1569 126.161 26.4337 127.072 26.4337C127.531 26.4337 127.881 26.384 128.123 26.2845C128.365 26.1851 128.528 26.0461 128.613 25.8676C128.699 25.6901 128.742 25.4544 128.742 25.1608V24.0596H128.684C128.419 24.3653 128.083 24.6054 127.705 24.7601C127.281 24.9371 126.823 25.0257 126.362 25.0199C125.295 25.0199 124.453 24.7323 123.833 24.1569C123.214 23.5816 122.905 22.762 122.905 21.6981C122.905 20.6256 123.215 19.8038 123.833 19.2328C124.452 18.6618 125.295 18.3763 126.362 18.3763C126.835 18.3701 127.304 18.4609 127.739 18.6426C128.128 18.8018 128.466 19.0592 128.72 19.3884H128.79L128.79 18.5449ZM128.334 22.7946C128.638 22.5305 128.79 22.165 128.79 21.6981C128.79 21.2312 128.638 20.8657 128.334 20.6016C128.03 20.3382 127.59 20.2063 127.014 20.206C126.454 20.206 126.028 20.3336 125.736 20.5887C125.444 20.8437 125.298 21.2143 125.298 21.7004C125.298 22.176 125.444 22.5437 125.736 22.8034C126.028 23.0631 126.454 23.1928 127.014 23.1925C127.59 23.19 128.03 23.0574 128.334 22.7946Z" fill="white"/>
<path d="M132.256 18.5449H134.51V19.4662H134.58C134.884 19.0965 135.28 18.8084 135.73 18.6292C136.178 18.4522 136.709 18.3636 137.324 18.3633C137.505 18.3664 137.685 18.3845 137.863 18.4175V20.8958C137.521 20.8028 137.167 20.7548 136.812 20.7531C136.15 20.7531 135.609 20.8981 135.188 21.1881C134.768 21.478 134.558 21.9992 134.558 22.7515V25.5512H132.256V18.5449Z" fill="white"/>
<path d="M145.716 19.2587C146.428 19.9162 146.785 20.846 146.784 22.0483C146.784 23.2505 146.428 24.1805 145.716 24.8383C145.003 25.4955 143.962 25.8241 142.592 25.8241C141.214 25.8241 140.169 25.4955 139.458 24.8383C138.747 24.1811 138.39 23.2511 138.386 22.0483C138.386 20.846 138.742 19.9162 139.454 19.2587C140.167 18.6012 141.211 18.2725 142.588 18.2725C143.961 18.2725 145.003 18.6012 145.716 19.2587ZM143.94 23.456C144.248 23.1234 144.402 22.6542 144.402 22.0483C144.402 21.4423 144.248 20.9753 143.94 20.647C143.633 20.3184 143.183 20.1541 142.592 20.1541C142 20.1541 141.551 20.3184 141.243 20.647C140.935 20.9759 140.782 21.443 140.782 22.0483C140.782 22.6535 140.936 23.1228 141.243 23.456C141.551 23.7895 142 23.9561 142.592 23.9558C143.183 23.9555 143.633 23.7889 143.94 23.456Z" fill="white"/>
<path d="M153.276 25.5513V24.6823H153.206C152.505 25.383 151.614 25.7333 150.532 25.7333C149.683 25.7333 149.006 25.5107 148.5 25.0654C147.994 24.62 147.741 23.9518 147.74 23.0605V18.5449H150.041V22.2559C150.041 23.2163 150.52 23.6965 151.477 23.6965C151.93 23.7053 152.369 23.5503 152.711 23.2615C153.058 22.9722 153.232 22.4986 153.234 21.8408V18.5449H155.523V25.5513H153.276Z" fill="white"/>
<path d="M159.047 24.8381V27.926H156.747V18.5446H159.001V19.453H159.071C159.334 19.1087 159.681 18.8343 160.081 18.6554C160.516 18.4643 160.988 18.3694 161.465 18.3774C162.555 18.3774 163.417 18.7017 164.052 19.3502C164.686 19.9987 165.003 20.9156 165.001 22.1009C165.001 23.2861 164.685 24.2032 164.052 24.852C163.419 25.5008 162.556 25.8251 161.465 25.8248C160.958 25.8248 160.509 25.7383 160.116 25.5654C159.729 25.3972 159.385 25.1494 159.106 24.839L159.047 24.8381ZM159.456 20.7376C159.137 21.0665 158.978 21.5206 158.978 22.0999C158.978 22.6793 159.137 23.1334 159.456 23.4623C159.776 23.7912 160.231 23.9556 160.822 23.9556C161.414 23.9556 161.861 23.7977 162.166 23.4818C162.469 23.1661 162.621 22.7055 162.621 22.0999C162.621 21.4943 162.469 21.0337 162.166 20.7181C161.862 20.4028 161.414 20.245 160.822 20.2447C160.231 20.2444 159.775 20.4087 159.456 20.7376Z" fill="white"/>
</svg>
