<svg width="20" height="20" viewBox="0 0 20 20" fill="none" xmlns="http://www.w3.org/2000/svg">
<g clip-path="url(#clip0_665_4407)">
<path d="M4.07666 13.2947C6.04931 15.6527 8.42394 17.5093 11.1343 18.823C12.1662 19.3121 13.5462 19.8923 15.0837 19.9917C15.179 19.9959 15.2702 20 15.3655 20C16.3974 20 17.2263 19.6436 17.9018 18.9101C17.9059 18.9059 17.9142 18.8976 17.9183 18.8893C18.1587 18.5993 18.4322 18.3382 18.7182 18.0605C18.913 17.874 19.1119 17.6792 19.3025 17.4803C20.1852 16.5603 20.1852 15.3916 19.2942 14.5006L16.8036 12.0099C16.3808 11.5707 15.8752 11.3386 15.3448 11.3386C14.8143 11.3386 14.3046 11.5707 13.8694 12.0058L12.3858 13.4894C12.2491 13.4107 12.1082 13.3402 11.9755 13.2739C11.8098 13.191 11.6564 13.1123 11.5197 13.0253C10.1687 12.1674 8.94197 11.0485 7.76916 9.61044C7.17653 8.86034 6.77869 8.23042 6.50103 7.58807C6.89058 7.23581 7.25527 6.86697 7.60753 6.50642C7.73186 6.37795 7.86033 6.24948 7.9888 6.12101C8.43638 5.67344 8.67674 5.15541 8.67674 4.62909C8.67674 4.10278 8.44052 3.58475 7.9888 3.13717L6.75382 1.9022C6.60878 1.75715 6.47202 1.61625 6.33111 1.4712C6.0576 1.18939 5.77164 0.899296 5.48984 0.63821C5.06298 0.219644 4.56153 0 4.03107 0C3.50476 0 2.99916 0.219644 2.55573 0.642354L1.00579 2.19229C0.442179 2.75591 0.123074 3.4397 0.0567669 4.23125C-0.0219733 5.22172 0.160372 6.27435 0.632813 7.54662C1.35805 9.51513 2.45213 11.3427 4.07666 13.2947ZM1.06796 4.31828C1.11769 3.76709 1.32904 3.30709 1.72689 2.90924L3.26854 1.36759C3.5089 1.13552 3.77413 1.01533 4.03107 1.01533C4.28387 1.01533 4.54081 1.13552 4.77703 1.37588C5.05469 1.63282 5.31578 1.9022 5.59759 2.18815C5.73849 2.3332 5.88354 2.47824 6.02859 2.62743L7.26356 3.86241C7.5205 4.11935 7.65312 4.38044 7.65312 4.63738C7.65312 4.89432 7.5205 5.15541 7.26356 5.41235C7.13509 5.54082 7.00662 5.67344 6.87815 5.80191C6.49274 6.19146 6.13219 6.5603 5.73435 6.91256C5.72606 6.92085 5.72191 6.92499 5.71363 6.93328C5.36966 7.27725 5.42353 7.60464 5.50641 7.85329C5.51056 7.86573 5.5147 7.87402 5.51885 7.88645C5.83795 8.65313 6.28138 9.38251 6.97347 10.2528C8.21673 11.7862 9.52631 12.9755 10.9685 13.8914C11.1467 14.0075 11.3373 14.0986 11.5155 14.1898C11.6813 14.2727 11.8346 14.3514 11.9714 14.4385C11.988 14.4467 12.0004 14.455 12.017 14.4633C12.1537 14.5338 12.2864 14.5669 12.419 14.5669C12.7505 14.5669 12.966 14.3556 13.0365 14.2851L14.5864 12.7352C14.8268 12.4948 15.0878 12.3663 15.3448 12.3663C15.6597 12.3663 15.9167 12.5611 16.0783 12.7352L18.5773 15.23C19.0746 15.7273 19.0704 16.2661 18.5648 16.7924C18.3908 16.9789 18.2084 17.1571 18.0137 17.3436C17.7236 17.6254 17.421 17.9155 17.1475 18.2429C16.6709 18.7567 16.1032 18.9971 15.3697 18.9971C15.2992 18.9971 15.2246 18.993 15.1542 18.9888C13.7949 18.9018 12.5309 18.3713 11.5818 17.9196C9.00413 16.6722 6.74139 14.9026 4.86406 12.6564C3.31827 10.7957 2.27807 9.06341 1.59013 7.2068C1.16327 6.06714 1.00165 5.15126 1.06796 4.31828Z" fill="white"/>
</g>
<defs>
<clipPath id="clip0_665_4407">
<rect width="20" height="20" fill="white"/>
</clipPath>
</defs>
</svg>
