<svg width="60" height="60" viewBox="0 0 60 60" fill="none" xmlns="http://www.w3.org/2000/svg">
<circle cx="30" cy="30" r="30" fill="black"/>
<path d="M37.4375 18.3125H22.5625C20.8051 18.3125 19.375 19.7426 19.375 21.5V41.6875C19.3751 41.8864 19.4309 42.0813 19.5363 42.2499C19.6416 42.4186 19.7922 42.5544 19.9709 42.6417C20.1495 42.7291 20.3491 42.7645 20.547 42.744C20.7448 42.7235 20.9329 42.6479 21.0899 42.5258L30 35.5962L38.9101 42.5258C39.0669 42.6483 39.255 42.7242 39.4529 42.7447C39.6508 42.7652 39.8504 42.7294 40.0289 42.6416C40.2076 42.5543 40.3582 42.4186 40.4636 42.2499C40.569 42.0813 40.6249 41.8864 40.625 41.6875V21.5C40.625 19.7426 39.1949 18.3125 37.4375 18.3125ZM39.0312 40.625L31.5938 34.7812C31.5938 34.7812 30.3061 33.719 30 33.7188C29.6939 33.7185 28.4062 34.7812 28.4062 34.7812L20.9688 40.625V21.5C20.9688 20.9146 21.9771 19.9062 22.5625 19.9062H37.4375C38.0229 19.9062 39.0312 20.3833 39.0312 20.9688V30.5312V40.625Z" fill="white"/>
</svg>
