<svg width="48" height="48" viewBox="0 0 48 48" fill="none" xmlns="http://www.w3.org/2000/svg">
<circle cx="24" cy="24" r="24" fill="black"/>
<path d="M31.4375 10.25H16.5625C14.8051 10.25 13.375 11.9325 13.375 14V37.75C13.3751 37.984 13.4309 38.2132 13.5363 38.4117C13.6416 38.6102 13.7922 38.7699 13.9709 38.8726C14.1495 38.9754 14.3491 39.0171 14.547 38.993C14.7448 38.9689 14.9329 38.8799 15.0899 38.7362L24 30.5837L32.9101 38.7362C33.0669 38.8804 33.255 38.9696 33.4529 38.9937C33.6508 39.0178 33.8504 38.9758 34.0289 38.8725C34.2076 38.7698 34.3582 38.6101 34.4636 38.4117C34.569 38.2132 34.6249 37.984 34.625 37.75V14C34.625 11.9325 33.1949 10.25 31.4375 10.25ZM33.0312 36.5L25.5938 29.625C25.5938 29.625 24.3061 28.3753 24 28.375C23.6939 28.3747 22.4062 29.625 22.4062 29.625L14.9688 36.5V14C14.9688 13.3112 15.9771 12.125 16.5625 12.125H31.4375C32.0229 12.125 33.0312 12.6862 33.0312 13.375V24.625V36.5Z" fill="white"/>
</svg>
