<svg width="20" height="21" viewBox="0 0 20 21" fill="none" xmlns="http://www.w3.org/2000/svg">
<path fill-rule="evenodd" clip-rule="evenodd" d="M3.54547 8.56496C3.54547 4.69514 6.66523 1.5455 10.5 1.5455C14.3348 1.5455 17.4546 4.69514 17.4546 8.56496C17.4546 13.4877 11.6601 18.2848 10.5 18.5414C9.33989 18.2859 3.54547 13.4888 3.54547 8.56496ZM2 8.56491C2 14.3707 8.65164 20.0909 10.5 20.0909C12.3484 20.0909 19 14.3707 19 8.56491C19 3.842 15.1868 0 10.5 0C5.81315 0 2 3.842 2 8.56491ZM8.6986 8.50102C8.6986 7.50575 9.50738 6.69696 10.5016 6.69696C11.4959 6.69696 12.3047 7.50575 12.3047 8.50102C12.3047 9.49526 11.4959 10.303 10.5016 10.303C9.50738 10.303 8.6986 9.49526 8.6986 8.50102ZM7.15313 8.50093C7.15313 10.3472 8.65531 11.8484 10.5016 11.8484C12.3479 11.8484 13.8501 10.3472 13.8501 8.50093C13.8501 6.65359 12.3479 5.15141 10.5016 5.15141C8.65531 5.15141 7.15313 6.65359 7.15313 8.50093Z" fill="#B0292E"/>
</svg>
