<svg width="21" height="20" viewBox="0 0 21 20" fill="none" xmlns="http://www.w3.org/2000/svg">
<g clip-path="url(#clip0_1527_1682)">
<path d="M7.59938 18.6C7.59938 18.9312 7.33062 19.2 6.99945 19.2H1.60008C1.26892 19.2 1.00015 18.9312 1.00015 18.6V13.2C1.00015 12.8688 1.26892 12.6 1.60008 12.6C1.93125 12.6 2.20001 12.8688 2.20001 13.2V18H6.99945C7.33062 18 7.59938 18.2688 7.59938 18.6ZM19.598 0H14.1986C13.8674 0 13.5987 0.268793 13.5987 0.6C13.5987 0.931207 13.8674 1.2 14.1986 1.2H18.998V6C18.998 6.33121 19.2668 6.6 19.598 6.6C19.9291 6.6 20.1979 6.33121 20.1979 6V0.6C20.1979 0.268793 19.9291 0 19.598 0ZM1.60008 6.6C1.93125 6.6 2.20001 6.33121 2.20001 6V1.2H6.99945C7.33062 1.2 7.59938 0.931207 7.59938 0.6C7.59938 0.268793 7.33062 0 6.99945 0H1.60008C1.26892 0 1.00015 0.268793 1.00015 0.6V6C1.00015 6.33121 1.26892 6.6 1.60008 6.6ZM19.598 12.6C19.2668 12.6 18.998 12.8688 18.998 13.2V18H14.1986C13.8674 18 13.5987 18.2688 13.5987 18.6C13.5987 18.9312 13.8674 19.2 14.1986 19.2H19.598C19.9291 19.2 20.1979 18.9312 20.1979 18.6V13.2C20.1979 12.8688 19.9291 12.6 19.598 12.6ZM20.1715 9.43327C20.1655 9.41171 20.1607 9.39121 20.1524 9.37086C20.1439 9.35171 20.1332 9.33363 20.1236 9.31568C20.1151 9.30014 20.108 9.28206 20.0972 9.26773C20.0768 9.23773 20.0527 9.20894 20.0263 9.18135C20.0251 9.18015 20.0239 9.17774 20.0227 9.17653L17.623 6.77653C17.3891 6.54256 17.0086 6.54256 16.7747 6.77653C16.5407 7.0105 16.5407 7.391 16.7747 7.62496L18.1497 9.00013H11.1991V2.04836L12.5741 3.42352C12.6916 3.54111 12.8452 3.5987 12.9989 3.5987C13.1525 3.5987 13.306 3.53991 13.4236 3.42352C13.6576 3.18955 13.6576 2.80906 13.4236 2.57509L11.0239 0.17509C11.0239 0.17509 11.0203 0.172679 11.0191 0.171473C10.9915 0.14509 10.9627 0.121115 10.9327 0.100625C10.9183 0.0909826 10.9015 0.0838845 10.886 0.0754467C10.8668 0.0645984 10.8488 0.0538841 10.8296 0.0454467C10.8105 0.0370094 10.79 0.0333933 10.7696 0.0275002C10.7517 0.0226786 10.7348 0.0154467 10.7169 0.0119643C10.6808 0.00473211 10.6436 0.001116 10.6053 0.001116H10.5993H10.5933C10.5548 0.001116 10.5177 0.00473211 10.4817 0.0119643C10.4638 0.0155805 10.4469 0.0228127 10.4289 0.0275002C10.4086 0.033527 10.3881 0.0383486 10.3702 0.0454467C10.351 0.0538841 10.3317 0.0645984 10.3126 0.0754467C10.297 0.0838841 10.2814 0.0909823 10.2658 0.100625C10.2358 0.120983 10.2058 0.145091 10.1795 0.171473C10.1783 0.172679 10.1758 0.173884 10.1746 0.17509L7.77493 2.57509C7.54098 2.80906 7.54098 3.18956 7.77493 3.42352C8.00887 3.6575 8.38932 3.6575 8.62326 3.42352L9.99827 2.04836V8.99979H3.04834L4.42334 7.62462C4.65729 7.39065 4.65729 7.01015 4.42334 6.77619C4.1894 6.54222 3.80895 6.54221 3.57501 6.77619L1.17529 9.17499C1.17529 9.17499 1.17288 9.1786 1.17168 9.17981C1.1453 9.2074 1.12132 9.23619 1.10084 9.26619C1.09119 9.28173 1.08289 9.2986 1.07446 9.31414C1.06481 9.33208 1.0529 9.35016 1.04566 9.36932C1.03723 9.38967 1.03241 9.41016 1.02652 9.43173C1.02169 9.44847 1.01567 9.46414 1.01205 9.48088C1.00482 9.51932 1 9.55762 1 9.59847C1 9.63932 1.00482 9.67762 1.01205 9.71606C1.01567 9.7328 1.02169 9.74967 1.02652 9.76521C1.03254 9.78557 1.03736 9.80726 1.04566 9.82762C1.0541 9.84677 1.06481 9.86485 1.07446 9.8828C1.08289 9.89833 1.08999 9.91642 1.10084 9.93074C1.12119 9.96074 1.1453 9.98954 1.17168 10.0171C1.17288 10.0183 1.17409 10.0207 1.17529 10.0219L3.57501 12.4219C3.69259 12.5395 3.84618 12.5971 3.99979 12.5971C4.1534 12.5971 4.30699 12.5383 4.42458 12.4219C4.65852 12.188 4.65852 11.8075 4.42458 11.5735L3.04957 10.1983H10.0002V17.1498L8.62518 15.7746C8.39124 15.5406 8.01079 15.5406 7.77685 15.7746C7.5429 16.0086 7.5429 16.3891 7.77685 16.623L10.1766 19.023C10.1766 19.023 10.1802 19.0255 10.1814 19.0267C10.209 19.053 10.2378 19.077 10.2678 19.0975C10.2822 19.1072 10.299 19.1143 10.3145 19.1227C10.3336 19.1323 10.3517 19.1443 10.3709 19.1527C10.39 19.1611 10.4117 19.1659 10.4321 19.1718C10.4488 19.1767 10.4657 19.1839 10.4824 19.1874C10.5209 19.1946 10.5592 19.1994 10.6 19.1994C10.6408 19.1994 10.6791 19.1946 10.7176 19.1874C10.7343 19.1838 10.7512 19.1777 10.7679 19.1718C10.7883 19.1658 10.81 19.161 10.8291 19.1527C10.8483 19.1443 10.8664 19.1335 10.8855 19.1227C10.901 19.1143 10.9179 19.1072 10.9322 19.0975C10.9622 19.0772 10.9922 19.053 11.0186 19.0267C11.0198 19.0255 11.0222 19.0243 11.0234 19.023L13.4232 16.623C13.6571 16.3891 13.6571 16.0086 13.4232 15.7746C13.1892 15.5406 12.8088 15.5406 12.5748 15.7746L11.1998 17.1498V10.1983H18.1504L16.7754 11.5735C16.5415 11.8075 16.5415 12.188 16.7754 12.4219C16.893 12.5395 17.0466 12.5971 17.2002 12.5971C17.3538 12.5971 17.5074 12.5383 17.625 12.4219L20.0247 10.0219C20.0247 10.0219 20.0271 10.0183 20.0283 10.0171C20.0547 9.98954 20.0787 9.96074 20.0992 9.93074C20.1088 9.91521 20.1171 9.89833 20.1255 9.8828C20.1352 9.86485 20.1471 9.84677 20.1543 9.82762C20.1628 9.80726 20.1676 9.78557 20.1735 9.76521C20.1783 9.74847 20.1843 9.7328 20.1879 9.71606C20.1952 9.67762 20.2 9.63932 20.2 9.59847C20.2 9.55762 20.1952 9.51932 20.1879 9.48088C20.1843 9.46414 20.1783 9.44847 20.1735 9.43173L20.1715 9.43327Z" fill="#B0292E"/>
</g>
<defs>
<clipPath id="clip0_1527_1682">
<rect width="20" height="20" fill="white" transform="translate(0.5)"/>
</clipPath>
</defs>
</svg>
