<svg width="35" height="35" viewBox="0 0 35 35" fill="none" xmlns="http://www.w3.org/2000/svg">
<circle cx="17.5" cy="17.5" r="17.5" fill="black" fill-opacity="0.4"/>
<path d="M22.9688 8.90625H12.0312C10.7391 8.90625 9.6875 9.95781 9.6875 11.25V26.0938C9.68754 26.24 9.72863 26.3833 9.80609 26.5073C9.88355 26.6314 9.99426 26.7312 10.1256 26.7954C10.257 26.8596 10.4038 26.8857 10.5492 26.8706C10.6947 26.8555 10.833 26.7999 10.9484 26.7102L17.5 21.6148L24.0516 26.7102C24.1668 26.8002 24.3051 26.856 24.4506 26.8711C24.5961 26.8861 24.743 26.8599 24.8742 26.7953C25.0056 26.7311 25.1164 26.6313 25.1938 26.5073C25.2713 26.3833 25.3124 26.24 25.3125 26.0938V11.25C25.3125 9.95781 24.2609 8.90625 22.9688 8.90625ZM24.1406 25.3125L18.6719 21.0156C18.6719 21.0156 17.7251 20.2346 17.5 20.2344C17.2749 20.2342 16.3281 21.0156 16.3281 21.0156L10.8594 25.3125V11.25C10.8594 10.8195 11.6008 10.0781 12.0312 10.0781H22.9688C23.3992 10.0781 24.1406 10.4289 24.1406 10.8594V17.8906V25.3125Z" fill="white"/>
</svg>
