<svg width="30" height="30" viewBox="0 0 30 30" fill="none" xmlns="http://www.w3.org/2000/svg">
<circle cx="15" cy="15" r="15" fill="white"/>
<path d="M15.4101 5.64307C16.4332 5.62744 17.4488 5.63557 18.4638 5.62744C18.4976 6.89682 19.0126 8.03932 19.8319 8.88557L19.8307 8.88432C20.7126 9.67869 21.8601 10.1937 23.1251 10.2812L23.1426 10.2824V13.4299C21.9476 13.3999 20.8238 13.1243 19.8107 12.6506L19.8619 12.6718C19.3719 12.4362 18.9576 12.1943 18.5638 11.9243L18.5963 11.9456C18.5888 14.2262 18.6038 16.5068 18.5807 18.7793C18.5163 19.9374 18.1313 20.9937 17.5138 21.8756L17.5263 21.8562C16.4938 23.3349 14.8213 24.3056 12.9194 24.3631H12.9107C12.8338 24.3668 12.7432 24.3687 12.6519 24.3687C11.5707 24.3687 10.5601 24.0674 9.69882 23.5443L9.72382 23.5587C8.15632 22.6156 7.07507 21.0018 6.87507 19.1249L6.87257 19.0993C6.85694 18.7087 6.84944 18.3181 6.86507 17.9356C7.17132 14.9487 9.67382 12.6381 12.7157 12.6381C13.0576 12.6381 13.3926 12.6674 13.7182 12.7231L13.6832 12.7181C13.6988 13.8737 13.6519 15.0299 13.6519 16.1856C13.3876 16.0899 13.0826 16.0343 12.7644 16.0343C11.5969 16.0343 10.6038 16.7806 10.2363 17.8224L10.2307 17.8412C10.1476 18.1081 10.0994 18.4149 10.0994 18.7324C10.0994 18.8612 10.1076 18.9887 10.1226 19.1137L10.1213 19.0987C10.3288 20.3774 11.4251 21.3424 12.7469 21.3424C12.7851 21.3424 12.8226 21.3418 12.8601 21.3399H12.8544C13.7688 21.3124 14.5626 20.8206 15.0113 20.0937L15.0176 20.0824C15.1844 19.8499 15.2988 19.5687 15.3369 19.2631L15.3376 19.2543C15.4157 17.8562 15.3844 16.4662 15.3919 15.0681C15.3994 11.9206 15.3844 8.78057 15.4076 5.64119L15.4101 5.64307Z" fill="#111111"/>
</svg>
