<svg width="30" height="30" viewBox="0 0 30 30" fill="none" xmlns="http://www.w3.org/2000/svg">
<circle cx="15" cy="15" r="15" fill="#111111"/>
<g clip-path="url(#clip0_1266_11231)">
<path d="M24.2964 16.5775C24.8931 11.555 24.0097 8.38419 22.4164 6.95002L22.4172 6.94919C19.8456 4.50002 11.1606 4.13752 8.08389 7.05919C6.70222 8.48835 6.21555 10.5859 6.16222 13.1825C6.10889 15.78 6.04555 20.6459 10.5797 21.9659H10.5839L10.5797 23.9817C10.5797 23.9817 10.5489 24.7984 11.0706 24.9625C11.6672 25.1559 11.9372 24.7767 13.7931 22.56C16.8964 22.8292 19.2797 22.2125 19.5506 22.1225C20.1772 21.9125 23.7231 21.4434 24.2964 16.5775ZM14.0989 21.1417C14.0989 21.1417 12.1347 23.5909 11.5239 24.2267C11.3239 24.4334 11.1047 24.4142 11.1081 24.0042C11.1081 23.735 11.1231 20.6575 11.1231 20.6575C7.27889 19.5559 7.50555 15.4125 7.54722 13.245C7.58889 11.0767 7.98555 9.30085 9.15555 8.10502C11.8547 5.57419 19.4689 6.14002 21.4089 7.96335C23.7806 10.0659 22.9364 16.0059 22.9414 16.2084C22.4539 20.27 19.5806 20.5275 19.0522 20.7034C18.8264 20.7784 16.7306 21.3175 14.0989 21.1417Z" fill="white"/>
<path d="M15.1859 8.58081C14.8651 8.58081 14.8651 9.08081 15.1859 9.08498C17.6751 9.10414 19.7251 10.8391 19.7476 14.0216C19.7476 14.3575 20.2393 14.3533 20.2351 14.0175H20.2343C20.2076 10.5883 17.9693 8.59998 15.1859 8.58081Z" fill="white"/>
<path d="M18.4594 13.4942C18.4519 13.8259 18.9428 13.8417 18.9469 13.5059C18.9878 11.615 17.8219 10.0575 15.6311 9.89336C15.3103 9.87003 15.2769 10.3742 15.5969 10.3975C17.4969 10.5417 18.4978 11.8384 18.4594 13.4942Z" fill="white"/>
<path d="M17.9345 15.645C17.5228 15.4067 17.1037 15.555 16.9303 15.7892L16.5678 16.2583C16.3837 16.4967 16.0395 16.465 16.0395 16.465C13.5278 15.8008 12.8562 13.1725 12.8562 13.1725C12.8562 13.1725 12.8253 12.8167 13.0553 12.6258L13.5087 12.2508C13.7353 12.0708 13.8787 11.6375 13.6478 11.2117C13.0312 10.0975 12.617 9.71334 12.4062 9.41834C12.1845 9.14084 11.8512 9.07834 11.5045 9.26584H11.497C10.7762 9.68751 9.98701 10.4767 10.2395 11.2892C10.6703 12.1458 11.462 14.8767 13.9853 16.94C15.1712 17.9158 17.0478 18.9158 17.8445 19.1467L17.852 19.1583C18.637 19.42 19.4003 18.6 19.8078 17.8575V17.8517C19.9887 17.4925 19.9287 17.1525 19.6645 16.93C19.1962 16.4733 18.4895 15.9692 17.9345 15.645Z" fill="white"/>
<path d="M15.9751 11.7534C16.7759 11.8 17.1643 12.2184 17.2059 13.0775C17.2209 13.4134 17.7084 13.39 17.6934 13.0542C17.6401 11.9325 17.0551 11.3075 16.0018 11.2492C15.6809 11.23 15.6509 11.7342 15.9751 11.7534Z" fill="white"/>
</g>
<defs>
<clipPath id="clip0_1266_11231">
<rect width="20" height="20" fill="white" transform="translate(5 5)"/>
</clipPath>
</defs>
</svg>
