<svg width="30" height="30" viewBox="0 0 30 30" fill="none" xmlns="http://www.w3.org/2000/svg">
<circle cx="15" cy="15" r="15" fill="white"/>
<g clip-path="url(#clip0_1266_12452)">
<path d="M24.2964 16.5778C24.8931 11.5553 24.0097 8.38443 22.4164 6.95026L22.4172 6.94943C19.8456 4.50026 11.1606 4.13776 8.08389 7.05943C6.70222 8.4886 6.21555 10.5861 6.16222 13.1828C6.10889 15.7803 6.04555 20.6461 10.5797 21.9661H10.5839L10.5797 23.9819C10.5797 23.9819 10.5489 24.7986 11.0706 24.9628C11.6672 25.1561 11.9372 24.7769 13.7931 22.5603C16.8964 22.8294 19.2797 22.2128 19.5506 22.1228C20.1772 21.9128 23.7231 21.4436 24.2964 16.5778ZM14.0989 21.1419C14.0989 21.1419 12.1347 23.5911 11.5239 24.2269C11.3239 24.4336 11.1047 24.4144 11.1081 24.0044C11.1081 23.7353 11.1231 20.6578 11.1231 20.6578C7.27889 19.5561 7.50555 15.4128 7.54722 13.2453C7.58889 11.0769 7.98555 9.3011 9.15555 8.10526C11.8547 5.57443 19.4689 6.14026 21.4089 7.9636C23.7806 10.0661 22.9364 16.0061 22.9414 16.2086C22.4539 20.2703 19.5806 20.5278 19.0522 20.7036C18.8264 20.7786 16.7306 21.3178 14.0989 21.1419Z" fill="#111111"/>
<path d="M15.1859 8.58105C14.8651 8.58105 14.8651 9.08105 15.1859 9.08522C17.6751 9.10439 19.7251 10.8394 19.7476 14.0219C19.7476 14.3577 20.2393 14.3536 20.2351 14.0177H20.2343C20.2076 10.5886 17.9693 8.60022 15.1859 8.58105Z" fill="#111111"/>
<path d="M18.4594 13.4942C18.4519 13.8259 18.9428 13.8417 18.9469 13.5059C18.9878 11.615 17.8219 10.0575 15.6311 9.89336C15.3103 9.87003 15.2769 10.3742 15.5969 10.3975C17.4969 10.5417 18.4978 11.8384 18.4594 13.4942Z" fill="#111111"/>
<path d="M17.9345 15.6457C17.5228 15.4074 17.1037 15.5557 16.9303 15.7899L16.5678 16.2591C16.3837 16.4974 16.0395 16.4657 16.0395 16.4657C13.5278 15.8016 12.8562 13.1732 12.8562 13.1732C12.8562 13.1732 12.8253 12.8174 13.0553 12.6266L13.5087 12.2516C13.7353 12.0716 13.8787 11.6382 13.6478 11.2124C13.0312 10.0982 12.617 9.71407 12.4062 9.41907C12.1845 9.14157 11.8512 9.07907 11.5045 9.26657H11.497C10.7762 9.68824 9.98701 10.4774 10.2395 11.2899C10.6703 12.1466 11.462 14.8774 13.9853 16.9407C15.1712 17.9166 17.0478 18.9166 17.8445 19.1474L17.852 19.1591C18.637 19.4207 19.4003 18.6007 19.8078 17.8582V17.8524C19.9887 17.4932 19.9287 17.1532 19.6645 16.9307C19.1962 16.4741 18.4895 15.9699 17.9345 15.6457Z" fill="#111111"/>
<path d="M15.9751 11.7537C16.7759 11.8004 17.1643 12.2187 17.2059 13.0779C17.2209 13.4137 17.7084 13.3904 17.6934 13.0546C17.6401 11.9329 17.0551 11.3079 16.0018 11.2496C15.6809 11.2304 15.6509 11.7346 15.9751 11.7537Z" fill="#111111"/>
</g>
<defs>
<clipPath id="clip0_1266_12452">
<rect width="20" height="20" fill="white" transform="translate(5 5)"/>
</clipPath>
</defs>
</svg>
