<svg width="36" height="36" viewBox="0 0 36 36" fill="none" xmlns="http://www.w3.org/2000/svg">
<circle cx="18" cy="18" r="18" fill="white"/>
<g clip-path="url(#clip0_680_5885)">
<path d="M30.0839 20.0504C30.8596 13.5212 29.7113 9.39908 27.6399 7.53466L27.641 7.53358C24.2979 4.34966 13.0074 3.87841 9.00769 7.67658C7.21152 9.53449 6.57885 12.2612 6.50952 15.6369C6.44019 19.0137 6.35785 25.3392 12.2523 27.0552H12.2577L12.2523 29.6758C12.2523 29.6758 12.2122 30.7375 12.8904 30.9509C13.666 31.2022 14.017 30.7093 16.4296 27.8277C20.4639 28.1776 23.5623 27.3759 23.9144 27.2589C24.729 26.9859 29.3386 26.376 30.0839 20.0504ZM16.8272 25.9838C16.8272 25.9838 14.2738 29.1677 13.4797 29.9943C13.2197 30.263 12.9348 30.2381 12.9391 29.7051C12.9391 29.3552 12.9586 25.3544 12.9586 25.3544C7.96119 23.9222 8.25585 18.5359 8.31002 15.7182C8.36419 12.8993 8.87985 10.5907 10.4009 9.03616C13.9098 5.74608 23.8082 6.48166 26.3302 8.85199C29.4134 11.5852 28.3159 19.3072 28.3224 19.5705C27.6887 24.8507 23.9534 25.1854 23.2665 25.414C22.9729 25.5115 20.2484 26.2124 16.8272 25.9838Z" fill="#111111"/>
<path d="M18.2405 9.6543C17.8235 9.6543 17.8235 10.3043 18.2405 10.3097C21.4765 10.3346 24.1415 12.5901 24.1707 16.7274C24.1707 17.164 24.8099 17.1585 24.8045 16.722H24.8034C24.7687 12.264 21.8589 9.67921 18.2405 9.6543Z" fill="#111111"/>
<path d="M22.4967 16.0425C22.4869 16.4736 23.125 16.4942 23.1304 16.0576C23.1835 13.5995 21.6679 11.5748 18.8199 11.3614C18.4028 11.331 18.3594 11.9865 18.7754 12.0168C21.2454 12.2042 22.5465 13.8899 22.4967 16.0425Z" fill="#111111"/>
<path d="M21.8141 18.8378C21.2789 18.528 20.734 18.7208 20.5087 19.0252L20.0374 19.6351C19.798 19.945 19.3506 19.9038 19.3506 19.9038C16.0854 19.0404 15.2122 15.6235 15.2122 15.6235C15.2122 15.6235 15.1722 15.161 15.4712 14.9129L16.0605 14.4254C16.3552 14.1914 16.5415 13.628 16.2414 13.0745C15.4397 11.626 14.9013 11.1266 14.6272 10.7431C14.3391 10.3824 13.9057 10.3011 13.4551 10.5449H13.4453C12.5082 11.093 11.4823 12.119 11.8106 13.1752C12.3707 14.2889 13.3998 17.839 16.6802 20.5213C18.2217 21.7899 20.6614 23.0899 21.6971 23.39L21.7068 23.4051C22.7273 23.7453 23.7197 22.6793 24.2494 21.714V21.7065C24.4845 21.2395 24.4065 20.7975 24.0631 20.5083C23.4542 19.9146 22.5356 19.2592 21.8141 18.8378Z" fill="#111111"/>
<path d="M19.2665 13.7792C20.3075 13.8398 20.8124 14.3837 20.8665 15.5006C20.886 15.9372 21.5198 15.9068 21.5003 15.4702C21.431 14.0121 20.6705 13.1996 19.3011 13.1237C18.884 13.0988 18.845 13.7542 19.2665 13.7792Z" fill="#111111"/>
</g>
<defs>
<clipPath id="clip0_680_5885">
<rect width="26" height="26" fill="white" transform="translate(5 5)"/>
</clipPath>
</defs>
</svg>
